<svg width="58" height="45" viewBox="0 0 58 45" fill="none" xmlns="http://www.w3.org/2000/svg">
<g clip-path="url(#clip0_6687_821)">
<path d="M41.2504 18.1118H39.8556C39.665 18.1118 39.4773 18.1585 39.309 18.2477C39.1406 18.337 38.9967 18.4661 38.8897 18.6238L37.0243 21.3756C37.0128 21.3924 36.9973 21.4063 36.9793 21.4158C36.9612 21.4254 36.9411 21.4304 36.9207 21.4304C36.9003 21.4304 36.8802 21.4254 36.8621 21.4158C36.8441 21.4063 36.8286 21.3924 36.8171 21.3756L34.9519 18.6238C34.8449 18.4661 34.701 18.337 34.5326 18.2477C34.3642 18.1585 34.1766 18.1118 33.986 18.1118L32.5912 18.1118L35.9141 23.0137L32.6095 27.8881H34.0043C34.1949 27.8881 34.3826 27.8414 34.5509 27.7521C34.7193 27.6629 34.8632 27.5338 34.9702 27.376L36.8171 24.6515C36.8286 24.6346 36.8441 24.6208 36.8621 24.6113C36.8802 24.6017 36.9003 24.5967 36.9207 24.5967C36.9411 24.5967 36.9612 24.6017 36.9793 24.6113C36.9973 24.6208 37.0128 24.6346 37.0243 24.6515L38.8712 27.376C38.9782 27.5338 39.1222 27.6629 39.2906 27.7522C39.459 27.8414 39.6467 27.8881 39.8372 27.8881H41.232L37.9274 23.0137L41.2504 18.1118ZM29.7216 19.1117V27.8881H30.3882C30.5195 27.8881 30.6496 27.8622 30.7709 27.812C30.8923 27.7617 31.0025 27.6881 31.0954 27.5952C31.1883 27.5023 31.2619 27.3921 31.3122 27.2707C31.3624 27.1494 31.3883 27.0193 31.3883 26.888V18.1118H30.7217C30.5903 18.1118 30.4603 18.1376 30.339 18.1879C30.2176 18.2381 30.1074 18.3118 30.0145 18.4046C29.9216 18.4975 29.848 18.6077 29.7977 18.7291C29.7474 18.8504 29.7216 18.9804 29.7216 19.1117ZM28.4998 18.1118H27.9064C27.5893 18.1118 27.2817 18.2195 27.0339 18.4173C26.7861 18.615 26.6129 18.8912 26.5426 19.2003L25.2156 25.0343L24.0539 19.5883C23.839 18.5818 22.8063 17.903 21.7495 18.1949C21.0763 18.3808 20.5773 18.9495 20.4317 19.6323L19.2819 25.027L17.9572 19.2006C17.8869 18.8914 17.7136 18.6153 17.4658 18.4175C17.2179 18.2197 16.9102 18.1119 16.5931 18.1118H16L18.2233 27.8876H19.0658C19.8302 27.8876 20.4907 27.3531 20.6501 26.6055L22.0715 19.9357C22.0889 19.8529 22.1632 19.793 22.2476 19.793C22.332 19.793 22.4062 19.8529 22.4238 19.9357L23.8462 26.606C23.9235 26.9688 24.1231 27.2941 24.4115 27.5274C24.7 27.7606 25.0598 27.8878 25.4307 27.8876H26.2759L28.4998 18.1118Z" fill="black"/>
</g>
<defs>
<clipPath id="clip0_6687_821">
<rect width="25.3571" height="10" fill="white" transform="translate(16 18)"/>
</clipPath>
</defs>
</svg>
