<svg width="1241" height="235" viewBox="0 0 1241 235" fill="none" xmlns="http://www.w3.org/2000/svg">
<g filter="url(#filter0_f_2708_4178)">
<path d="M1008.31 107.345C1021.05 102.164 1034.73 99.6751 1048.47 100.034C1061.62 99.8348 1074.69 102.205 1086.94 107.013C1097.87 111.327 1107.79 117.855 1116.09 126.188C1124.21 134.527 1130.5 144.477 1134.56 155.398C1138.9 167.09 1141.08 179.477 1140.99 191.953V247.583C1141.15 260.622 1138.9 273.578 1134.36 285.799C1130.26 296.744 1123.89 306.698 1115.69 315.01C1107.43 323.209 1097.5 329.523 1086.57 333.52C1074.35 337.95 1061.43 340.135 1048.44 339.967C1034.7 340.321 1021.04 337.833 1008.31 332.656C997.469 328.085 987.757 321.188 979.859 312.451C972.226 303.889 966.455 293.828 962.914 282.908C959.151 271.572 957.258 259.696 957.31 247.749V191.887C957.252 180.004 959.146 168.193 962.914 156.927C966.48 146.068 972.25 136.066 979.859 127.55C987.757 118.813 997.469 111.916 1008.31 107.345ZM194.046 101.569C210.559 101.32 226.916 104.808 241.897 111.771C256.34 118.786 267.85 130.684 274.396 145.368C278.94 154.959 281.587 165.342 282.189 175.941C283.118 187.705 283.571 200.998 283.549 215.819C283.549 232.346 283.096 246.747 282.189 259.021C281.547 270.078 279.14 280.962 275.06 291.256C271.584 299.542 266.577 307.096 260.303 313.521C254.42 319.422 247.594 324.297 240.107 327.943C232.354 331.652 224.131 334.279 215.667 335.753C206.582 337.369 197.371 338.17 188.144 338.146H100V101.569H194.046ZM489.354 148.425H374.813V196.411H472.407V241.573H374.813V291.155H489.354V338.045L322.617 337.945V101.568H489.354V148.425ZM616.747 173.914L662.178 244.896L662.841 244.531V101.635H715.037V338.012L668.611 337.945L608.622 251.012L573.703 194.518L573.04 194.85V337.746H520.844V101.568H567.27L616.747 173.914ZM822.462 197.342L840.07 257.458H841.795L858.375 198.372L888.221 101.568H942.771L861.36 337.945H819.079L737.402 101.568H792.317L822.462 197.342ZM1047.97 148.951C1042.12 148.831 1036.31 149.964 1030.93 152.274C1026.39 154.271 1022.33 157.216 1019.02 160.914C1015.89 164.496 1013.47 168.647 1011.89 173.144C1010.32 177.675 1009.52 182.437 1009.51 187.234V251.438C1009.48 256.508 1010.29 261.548 1011.89 266.358C1013.4 271.057 1015.88 275.388 1019.16 279.073C1022.43 282.758 1026.44 285.717 1030.93 287.76C1036.29 290.119 1042.12 291.254 1047.97 291.083C1060.69 291.083 1070.49 287.295 1077.39 279.718C1084.38 271.97 1088.1 261.81 1087.77 251.371V187.134C1087.93 177.131 1084.21 167.456 1077.39 160.15C1070.42 152.574 1060.62 148.785 1047.97 148.785V148.951ZM152.163 290.99H186.386C193.842 291.235 201.275 290.026 208.272 287.434C213.667 285.323 218.397 281.8 221.968 277.231C225.532 272.512 228.023 267.067 229.264 261.28C230.802 254.433 231.547 247.43 231.485 240.411V197.21C231.485 180.905 227.926 168.719 220.808 160.655C213.689 152.591 201.883 148.581 185.391 148.625H152.229L152.163 290.99Z" fill="url(#paint0_linear_2708_4178)"/>
</g>
<defs>
<filter id="filter0_f_2708_4178" x="0" y="0" width="1241" height="440" filterUnits="userSpaceOnUse" color-interpolation-filters="sRGB">
<feFlood flood-opacity="0" result="BackgroundImageFix"/>
<feBlend mode="normal" in="SourceGraphic" in2="BackgroundImageFix" result="shape"/>
<feGaussianBlur stdDeviation="50" result="effect1_foregroundBlur_2708_4178"/>
</filter>
<linearGradient id="paint0_linear_2708_4178" x1="620.499" y1="100" x2="620.499" y2="340" gradientUnits="userSpaceOnUse">
<stop stop-color="white"/>
<stop offset="0.882853" stop-color="#A259FF"/>
</linearGradient>
</defs>
</svg>
