<svg width="1041" height="135" viewBox="0 0 1041 135" fill="none" xmlns="http://www.w3.org/2000/svg">
<path d="M908.312 7.34454C921.054 2.16355 934.725 -0.325061 948.471 0.0339931C961.624 -0.165392 974.69 2.20484 986.938 7.01251C997.867 11.3269 1007.79 17.8548 1016.09 26.1873C1024.21 34.5267 1030.5 44.477 1034.56 55.3983C1038.9 67.0893 1041.08 79.4773 1040.99 91.9529V147.583C1041.15 160.622 1038.9 173.578 1034.36 185.799C1030.26 196.743 1023.89 206.698 1015.69 215.01C1007.43 223.209 997.496 229.523 986.573 233.519C974.352 237.95 961.433 240.134 948.438 239.967C934.703 240.321 921.043 237.833 908.312 232.656C897.469 228.085 887.757 221.188 879.859 212.451C872.226 203.889 866.455 193.827 862.914 182.908C859.151 171.572 857.258 159.696 857.31 147.749V91.8865C857.252 80.0042 859.146 68.1931 862.914 56.9266C866.48 46.068 872.25 36.066 879.859 27.5496C887.757 18.8126 897.469 11.9157 908.312 7.34454ZM94.0459 1.56915C110.559 1.32013 126.916 4.8075 141.897 11.7713C156.34 18.7859 167.85 30.6834 174.396 45.368C178.94 54.9589 181.587 65.3415 182.189 75.9412C183.118 87.7052 183.571 100.998 183.549 115.819C183.549 132.346 183.096 146.747 182.189 159.02C181.547 170.078 179.14 180.962 175.06 191.256C171.584 199.542 166.577 207.096 160.303 213.52C154.42 219.422 147.594 224.297 140.107 227.943C132.354 231.652 124.131 234.279 115.667 235.753C106.582 237.369 97.3708 238.17 88.1436 238.145H0V1.56915H94.0459ZM389.354 48.4246H274.813V96.4109H372.407V141.573H274.813V191.155H389.354V238.045L222.617 237.945V1.56817H389.354V48.4246ZM516.747 73.9139L562.178 144.896L562.841 144.531V1.63458H615.037V238.012L568.611 237.945L508.622 151.012L473.703 94.5174L473.04 94.8494V237.746H420.844V1.56817H467.27L516.747 73.9139ZM722.462 97.3416L740.07 157.458H741.795L758.375 98.3719L788.221 1.56817H842.771L761.36 237.945H719.079L637.402 1.56817H692.317L722.462 97.3416ZM947.974 48.951C942.121 48.8312 936.31 49.9643 930.929 52.2742C926.391 54.2707 922.332 57.2163 919.023 60.9139C915.888 64.4954 913.467 68.6473 911.894 73.1434C910.323 77.6747 909.516 82.4372 909.506 87.2342V151.437C909.485 156.508 910.292 161.548 911.894 166.358C913.405 171.057 915.879 175.388 919.156 179.073C922.434 182.758 926.444 185.717 930.929 187.76C936.295 190.119 942.117 191.254 947.974 191.083C960.685 191.083 970.49 187.294 977.388 179.718C984.376 171.97 988.095 161.809 987.767 151.371V87.1336C987.929 77.1308 984.208 67.456 977.388 60.1502C970.424 52.5734 960.619 48.785 947.974 48.785V48.951ZM52.1631 190.99H86.3857C93.8421 191.235 101.275 190.026 108.272 187.433C113.667 185.323 118.397 181.8 121.968 177.231C125.532 172.512 128.023 167.067 129.264 161.28C130.802 154.432 131.547 147.43 131.485 140.411V97.2098C131.485 80.9043 127.926 68.7193 120.808 60.6551C113.689 52.5909 101.883 48.5805 85.3906 48.6248H52.2295L52.1631 190.99Z" fill="url(#paint0_linear_1135_3102)"/>
<defs>
<linearGradient id="paint0_linear_1135_3102" x1="520.499" y1="0" x2="520.499" y2="240" gradientUnits="userSpaceOnUse">
<stop stop-color="white"/>
<stop offset="0.882853" stop-color="#A259FF"/>
</linearGradient>
</defs>
</svg>
